# xmcd CD database file
#
# Track frame offsets:
#	150
#	13282
#	30455
#	45363
#	63343
#	79870
#	102350
#	123128
#	138668
#	158743
#
# Disc length: 2326 seconds
#
# Revision: 4
# Processed by: cddbd v1.4PL0 Copyright (c) Steve Scherf et al.
# Submitted via: CDex 1.40Beta9
#
DISCID=7909140a
DTITLE=Reba Mcentire - Rumor Has It
DYEAR=1990
DGENRE=Country
TTITLE0=Climb That Mountain High
TTITLE1=Rumor Has It
TTITLE2=Waitin' For The Deal To Go Down
TTITLE3=You Lie
TTITLE4=Now You Tell Me
TTITLE5=Fancy
TTITLE6=Fallin' Out Of Love
TTITLE7=This Picture
TTITLE8=You Remember Me
TTITLE9=That's All She Wrote
EXTD=YEAR: 1990 ID3G: 2
EXTT0=
EXTT1=
EXTT2=
EXTT3=
EXTT4=
EXTT5=
EXTT6=
EXTT7=
EXTT8=
EXTT9=
PLAYORDER=
